<svg width="20" height="20" viewBox="0 0 20 20" fill="none" xmlns="http://www.w3.org/2000/svg">
<path fill-rule="evenodd" clip-rule="evenodd" d="M18.2432 8.09183L18.7948 9.47016C18.904 9.7435 18.9582 10.0293 18.9582 10.321V15.2777C18.9582 16.0818 18.304 16.736 17.4998 16.736H16.5073C16.4165 17.041 16.259 17.3235 16.0273 17.5552C15.6598 17.9235 15.1715 18.1252 14.6523 18.1252C14.1323 18.1252 13.644 17.9227 13.2773 17.5552C13.064 17.3418 12.9148 17.0852 12.8198 16.8085H7.31984C7.22484 17.0852 7.07484 17.3418 6.8615 17.5552C6.494 17.9235 6.00484 18.1252 5.48567 18.1252C4.9665 18.1252 4.47817 17.9227 4.11067 17.5552C3.89734 17.341 3.7465 17.0835 3.65234 16.8052H2.49984C1.69567 16.8052 1.0415 16.151 1.0415 15.3468V10.8335C1.0415 10.4885 1.3215 10.2085 1.6665 10.2085C2.0115 10.2085 2.2915 10.4885 2.2915 10.8335V11.8752H11.8748V4.16683C11.8748 4.05183 11.7815 3.9585 11.6665 3.9585H8.33317C7.98817 3.9585 7.70817 3.6785 7.70817 3.3335C7.70817 2.9885 7.98817 2.7085 8.33317 2.7085H11.6665C12.4707 2.7085 13.1248 3.36266 13.1248 4.16683V5.2085H16.1023C16.7032 5.2085 17.2332 5.5685 17.4557 6.126L18.2415 8.0885L18.2432 8.09183ZM17.7082 10.321C17.7082 10.1885 17.6832 10.0577 17.6332 9.9335L17.2432 8.9585H15.6248V11.0418H17.7082V10.321ZM4.99567 16.6718C5.25734 16.9352 5.71567 16.9352 5.97817 16.6718C6.10984 16.541 6.1815 16.366 6.1815 16.1802C6.1815 15.9943 6.109 15.8202 5.97817 15.6885C5.84317 15.5535 5.66484 15.486 5.48734 15.486C5.309 15.486 5.13067 15.5535 4.99484 15.6885C4.724 15.9602 4.724 16.401 4.99567 16.6718ZM14.1615 16.6718C14.4257 16.9352 14.8815 16.9352 15.1448 16.6718C15.2765 16.5402 15.3482 16.366 15.3482 16.1802C15.3482 15.9943 15.2765 15.8202 15.1448 15.6885C15.0132 15.5568 14.839 15.4852 14.6532 15.4852C14.4673 15.4852 14.2932 15.5568 14.1615 15.6885C14.0298 15.8202 13.9582 15.9943 13.9582 16.1802C13.9582 16.366 14.0298 16.5402 14.1615 16.6718ZM16.4665 15.486H17.4998C17.6148 15.486 17.7082 15.3927 17.7082 15.2777V12.2918H14.9998C14.6548 12.2918 14.3748 12.0118 14.3748 11.6668V8.3335C14.3748 7.9885 14.6548 7.7085 14.9998 7.7085H16.7423L16.2948 6.59016C16.2632 6.51016 16.1882 6.4585 16.1023 6.4585H13.1248V12.5002C13.1248 12.8452 12.8448 13.1252 12.4998 13.1252H2.2915V15.3468C2.2915 15.4618 2.38484 15.5552 2.49984 15.5552H3.65317C3.74734 15.2768 3.89817 15.0193 4.11234 14.8052C4.87067 14.0468 6.10484 14.0468 6.86234 14.8052C7.0765 15.0202 7.22734 15.2793 7.3215 15.5585H12.8173C12.9115 15.2793 13.0623 15.0202 13.2773 14.8052C14.014 14.0685 15.2948 14.0702 16.0282 14.8052C16.2248 15.0018 16.3698 15.2343 16.4665 15.486Z" fill="black"/>
<path d="M5.83317 3.9585H1.6665C1.3215 3.9585 1.0415 3.6785 1.0415 3.3335C1.0415 2.9885 1.3215 2.7085 1.6665 2.7085H5.83317C6.17817 2.7085 6.45817 2.9885 6.45817 3.3335C6.45817 3.6785 6.17817 3.9585 5.83317 3.9585Z" fill="black"/>
<path d="M1.6665 6.4585H4.1665C4.5115 6.4585 4.7915 6.1785 4.7915 5.8335C4.7915 5.4885 4.5115 5.2085 4.1665 5.2085H1.6665C1.3215 5.2085 1.0415 5.4885 1.0415 5.8335C1.0415 6.1785 1.3215 6.4585 1.6665 6.4585Z" fill="black"/>
<path d="M2.49984 8.9585H1.6665C1.3215 8.9585 1.0415 8.6785 1.0415 8.3335C1.0415 7.9885 1.3215 7.7085 1.6665 7.7085H2.49984C2.84484 7.7085 3.12484 7.9885 3.12484 8.3335C3.12484 8.6785 2.84484 8.9585 2.49984 8.9585Z" fill="black"/>
</svg>
